# xmcd CD database file
#
# Track frame offsets:
#	150
#	21883
#	38607
#	60298
#	73271
#	88172
#	109459
#	123676
#	151887
#	171439
#
# Disc length: 2479 seconds
#
# Revision: 0
# Processed by: cddbd v1.5.2PL0 Copyright (c) Steve Scherf et al.
# Submitted via: CDex 1.70beta2
#
DISCID=8809ad0a
DTITLE=Big Mama Montse and 30's band - Party Life
DYEAR=2018
DGENRE=Blues
TTITLE0=New blood
TTITLE1=Party life
TTITLE2=You put a smile on my face
TTITLE3=Forgive yourself
TTITLE4=Take a look
TTITLE5=Ain't gonna bury my dreams
TTITLE6=Good looking man
TTITLE7=I wish
TTITLE8=Free at last
TTITLE9=Jambalaya
EXTD=YEAR: 2018
EXTT0=
EXTT1=
EXTT2=
EXTT3=
EXTT4=
EXTT5=
EXTT6=
EXTT7=
EXTT8=
EXTT9=
PLAYORDER=
